<svg xmlns="http://www.w3.org/2000/svg" viewBox="0 0 512 512">
  <!-- campable logo — madrona pin (LF9, +40 down, -5 left) -->
  <path fill="#2d5016" d="M256 476C256 476 88 296 88 196C88 103 163 28 256 28C349 28 424 103 424 196C424 296 256 476 256 476Z"/>
  <!-- Trunk — S-curve -->
  <path fill="none" stroke="#f5f5f0" stroke-width="13" stroke-linecap="round" d="M253,318 C247,282 233,248 235,222 C237,205 231,192 229,185"/>
  <!-- Left branch -->
  <path fill="none" stroke="#f5f5f0" stroke-width="9" stroke-linecap="round" d="M233,222 C213,195 195,175 180,158"/>
  <!-- Right branch -->
  <path fill="none" stroke="#f5f5f0" stroke-width="9" stroke-linecap="round" d="M235,208 C263,180 285,160 303,145"/>
  <!-- Center branch -->
  <path fill="none" stroke="#f5f5f0" stroke-width="8" stroke-linecap="round" d="M232,198 C239,172 245,158 249,145"/>
  <!-- Scalloped canopy -->
  <path fill="#f5f5f0" d="M163,155 Q167,132 183,120 Q199,110 217,106 Q235,96 253,102 Q267,92 285,100 Q301,92 315,106 Q329,98 337,118 Q343,138 331,156 Q337,170 319,174 Q301,182 283,174 Q265,182 247,176 Q229,182 213,176 Q195,176 181,166 Q167,162 163,155Z"/>
</svg>
