<svg xmlns="http://www.w3.org/2000/svg" viewBox="0 0 1200 630">
  <!-- campable OG share card — 1200×630 -->
  <defs>
    <style>
      @import url('https://fonts.googleapis.com/css2?family=Plus+Jakarta+Sans:wght@500;700&amp;display=swap');
      .bg { fill: #f5f5f0; }
      .brand-green { fill: #2d5016; }
      .brand-mid { fill: #4a8028; }
      .text-primary { fill: #1a1a1a; font-family: 'Plus Jakarta Sans', sans-serif; }
      .text-muted { fill: #666; font-family: -apple-system, BlinkMacSystemFont, 'Segoe UI', sans-serif; }
    </style>
  </defs>

  <!-- Background -->
  <rect class="bg" width="1200" height="630"/>

  <!-- Mountain ridge decoration (bottom) -->
  <path class="brand-green" d="
    M0 530 L120 420 L200 470 L320 360 L420 440 L520 350 L620 430
    L720 370 L820 440 L920 380 L1020 430 L1100 390 L1200 450
    L1200 630 L0 630 Z
  " opacity="0.15"/>
  <path class="brand-mid" d="
    M0 570 L100 500 L200 530 L340 460 L440 510 L560 450 L660 500
    L760 460 L860 500 L960 470 L1060 510 L1150 480 L1200 500
    L1200 630 L0 630 Z
  " opacity="0.12"/>

  <!-- Madrona pin logo (scaled) -->
  <g transform="translate(80, 100) scale(0.3)">
    <path class="brand-green" d="M256 476C256 476 88 296 88 196C88 103 163 28 256 28C349 28 424 103 424 196C424 296 256 476 256 476Z"/>
    <path fill="none" stroke="#f5f5f0" stroke-width="13" stroke-linecap="round" d="M253,318 C247,282 233,248 235,222 C237,205 231,192 229,185"/>
    <path fill="none" stroke="#f5f5f0" stroke-width="9" stroke-linecap="round" d="M233,222 C213,195 195,175 180,158"/>
    <path fill="none" stroke="#f5f5f0" stroke-width="9" stroke-linecap="round" d="M235,208 C263,180 285,160 303,145"/>
    <path fill="none" stroke="#f5f5f0" stroke-width="8" stroke-linecap="round" d="M232,198 C239,172 245,158 249,145"/>
    <path fill="#f5f5f0" d="M163,155 Q167,132 183,120 Q199,110 217,106 Q235,96 253,102 Q267,92 285,100 Q301,92 315,106 Q329,98 337,118 Q343,138 331,156 Q337,170 319,174 Q301,182 283,174 Q265,182 247,176 Q229,182 213,176 Q195,176 181,166 Q167,162 163,155Z"/>
  </g>

  <!-- Wordmark -->
  <text class="text-primary" x="210" y="215" font-size="72" font-weight="500" letter-spacing="0.5">camp</text>
  <text class="text-primary" x="430" y="215" font-size="72" font-weight="700" letter-spacing="0.5">able</text>

  <!-- Tagline -->
  <text class="text-primary" x="80" y="310" font-size="42" font-weight="700">Find your weekend.</text>

  <!-- Explanatory -->
  <text class="text-muted" x="80" y="370" font-size="24">Real-time campsite availability across the Pacific Northwest and beyond.</text>

  <!-- Source badges -->
  <g transform="translate(80, 420)">
    <rect fill="#e8f0e0" width="100" height="32" rx="6"/>
    <text fill="#2d5016" x="50" y="22" font-size="14" font-family="'Plus Jakarta Sans', sans-serif" font-weight="500" text-anchor="middle">Rec.gov</text>

    <rect fill="#deeef5" x="112" width="100" height="32" rx="6"/>
    <text fill="#1a5276" x="162" y="22" font-size="14" font-family="'Plus Jakarta Sans', sans-serif" font-weight="500" text-anchor="middle">WA Parks</text>

    <rect fill="#fef3e0" x="224" width="100" height="32" rx="6"/>
    <text fill="#7d5a1a" x="274" y="22" font-size="14" font-family="'Plus Jakarta Sans', sans-serif" font-weight="500" text-anchor="middle">OR Parks</text>
  </g>

  <!-- Stats line -->
  <text class="text-muted" x="80" y="500" font-size="20">1,376 campgrounds · 6 states · WA · OR · ID · MT · WY · CA</text>
</svg>
